<?xml version="1.0" encoding="utf-8"?>
<!-- Generator: Adobe Illustrator 19.2.1, SVG Export Plug-In . SVG Version: 6.00 Build 0)  -->
<!DOCTYPE svg PUBLIC "-//W3C//DTD SVG 1.1//EN" "http://www.w3.org/Graphics/SVG/1.1/DTD/svg11.dtd">
<svg version="1.1" id="Layer_1" xmlns="http://www.w3.org/2000/svg" xmlns:xlink="http://www.w3.org/1999/xlink" x="0px" y="0px"
	 viewBox="0 0 106.1 99.1" style="enable-background:new 0 0 106.1 99.1;" xml:space="preserve">
<style type="text/css">
	.st0{fill:#777777;}
</style>
<title>search-icon</title>
<path class="st0" d="M100.4,75.3C95,69.6,88.7,65,82.5,60.3c-2.1-1.7-5.7-3.7-6.4-6.5c-0.6-2.5,1.2-5.2,1.7-7.6
	c0.8-3.6,1.2-7.3,0.9-11c-0.6-7.9-3.4-15.6-7.9-22.1C62.2,0.3,47-1.6,32.9,1C19.7,3.5,7.9,11.8,2.8,24.3C-1.9,35.8-0.4,49,5.3,59.8
	c4.9,9.3,13.4,16.1,23.8,18.1c5,0.9,10.2,0.8,15.2-0.4c2.6-0.6,5.2-1.4,7.7-2.5c2.4-1,5-2.9,7.7-1.4c3.7,2.1,6.9,6.4,10,9.3
	c3.6,3.4,7.3,6.6,11.2,9.7c6.4,5.1,14.5,9.9,21.6,2.9C108.9,89.2,105.9,81.1,100.4,75.3z M14.6,62C2.2,46,4.4,19.5,23.9,10.1
	c4.3-2.1,9.3-3,14-3.7c5.4-1,11-0.5,16.1,1.6c18,7.8,25.1,35.3,11.6,50.1C52.6,72.3,27.8,78.9,14.6,62z M99.5,89
	c-4.4,10.8-19.4-5.2-22.2-7.9c-3.1-3-6.7-5.4-9.6-8.6c-1-1.1-3-3-2.8-4.7c0.1-1.3,1.6-2.1,2.4-3c2.1-2.1,3.6-5.1,6.8-3.2
	c4.2,2.5,7.8,6.4,11.7,9.4C90.2,74.6,102.5,81.6,99.5,89L99.5,89z M59,34.2c-4.1,4.2-10.3,3-14.6,0.1c-4.2-2.9-9.6-3.2-14-0.8
	c-1.1,0.7-2.5,1.5-3.6,0.7c-0.8-0.7-0.9-1.9-0.3-2.7c1.8-3.1,7.8-4.5,11-4.5c4.5,0.1,12.3,5.8,16,3.4c5.7-3.8-1.2-9.4-4.8-11.5
	c-6-3.5-13.3-4-19.2,0c-3.6,2.4-5.2,5.6-6.6,9.5c-1.1,3.3-4.6,3.8-4.6-0.3c-0.1-18.6,26.3-22,37.8-12.2C61.2,20.2,64.2,29,59,34.2z"
	/>
</svg>
