<svg id="Layer_1" xmlns="http://www.w3.org/2000/svg" viewBox="0 0 106.1 99.1"><style>.st0{fill:#777}</style><title>search-icon</title><path class="st0" d="M100.4 75.3C95 69.6 88.7 65 82.5 60.3c-2.1-1.7-5.7-3.7-6.4-6.5-.6-2.5 1.2-5.2 1.7-7.6.8-3.6 1.2-7.3.9-11-.6-7.9-3.4-15.6-7.9-22.1C62.2.3 47-1.6 32.9 1 19.7 3.5 7.9 11.8 2.8 24.3-1.9 35.8-.4 49 5.3 59.8c4.9 9.3 13.4 16.1 23.8 18.1 5 .9 10.2.8 15.2-.4 2.6-.6 5.2-1.4 7.7-2.5 2.4-1 5-2.9 7.7-1.4 3.7 2.1 6.9 6.4 10 9.3 3.6 3.4 7.3 6.6 11.2 9.7 6.4 5.1 14.5 9.9 21.6 2.9 6.4-6.3 3.4-14.4-2.1-20.2zM14.6 62C2.2 46 4.4 19.5 23.9 10.1c4.3-2.1 9.3-3 14-3.7 5.4-1 11-.5 16.1 1.6 18 7.8 25.1 35.3 11.6 50.1-13 14.2-37.8 20.8-51 3.9zm84.9 27c-4.4 10.8-19.4-5.2-22.2-7.9-3.1-3-6.7-5.4-9.6-8.6-1-1.1-3-3-2.8-4.7.1-1.3 1.6-2.1 2.4-3 2.1-2.1 3.6-5.1 6.8-3.2 4.2 2.5 7.8 6.4 11.7 9.4 4.4 3.6 16.7 10.6 13.7 18zM59 34.2c-4.1 4.2-10.3 3-14.6.1-4.2-2.9-9.6-3.2-14-.8-1.1.7-2.5 1.5-3.6.7-.8-.7-.9-1.9-.3-2.7 1.8-3.1 7.8-4.5 11-4.5 4.5.1 12.3 5.8 16 3.4 5.7-3.8-1.2-9.4-4.8-11.5-6-3.5-13.3-4-19.2 0-3.6 2.4-5.2 5.6-6.6 9.5-1.1 3.3-4.6 3.8-4.6-.3-.1-18.6 26.3-22 37.8-12.2 5.1 4.3 8.1 13.1 2.9 18.3z"/></svg>