<svg id="Layer_1" data-name="Layer 1" xmlns="http://www.w3.org/2000/svg" viewBox="0 0 106.11 99.14"><defs><style>.cls-1{fill:#212121;}</style></defs><title>search-icon</title><path class="cls-1" d="M147.33,128.1c-5.39-5.66-11.71-10.27-17.86-15-2.14-1.66-5.71-3.66-6.42-6.5-0.62-2.52,1.18-5.19,1.74-7.57a37.49,37.49,0,0,0,.91-11,44.92,44.92,0,0,0-7.95-22.12C109.15,53.18,94,51.22,79.89,53.84,66.68,56.31,54.81,64.61,49.7,77.17c-4.66,11.45-3.16,24.69,2.58,35.46,4.93,9.26,13.42,16.13,23.81,18.09a37.87,37.87,0,0,0,15.17-.35,44.15,44.15,0,0,0,7.67-2.46c2.44-1,5-2.87,7.66-1.38,3.74,2.08,6.87,6.42,10,9.33,3.62,3.36,7.34,6.63,11.2,9.71,6.35,5.07,14.46,9.92,21.56,2.91C155.88,142,152.85,133.89,147.33,128.1ZM61.58,114.79c-12.45-16-10.27-42.46,9.3-51.84,4.35-2.08,9.28-3,14-3.73A28.8,28.8,0,0,1,101,60.78c18,7.81,25.1,35.34,11.64,50.08C99.58,125.15,74.73,131.71,61.58,114.79Zm84.85,27.07c-4.36,10.82-19.41-5.22-22.22-7.91-3.09-3-6.69-5.42-9.62-8.6-1-1.08-3-3-2.85-4.68,0.15-1.29,1.58-2.14,2.42-3,2.14-2.12,3.61-5.1,6.81-3.16,4.17,2.53,7.81,6.37,11.66,9.39C137.15,127.47,149.44,134.39,146.43,141.85ZM106,87.08c-4.08,4.16-10.35,3-14.64.08a13.41,13.41,0,0,0-14-.75c-1.13.65-2.54,1.47-3.6,0.72a2.1,2.1,0,0,1-.34-2.73c1.83-3.07,7.76-4.5,11-4.47,4.47,0.05,12.32,5.85,16,3.38,5.69-3.81-1.18-9.37-4.77-11.47-6-3.51-13.29-4-19.24,0-3.57,2.44-5.24,5.57-6.55,9.48-1.11,3.31-4.56,3.82-4.57-.35-0.07-18.6,26.26-22.05,37.82-12.22C108.15,73,111.2,81.83,106,87.08Z" transform="translate(-46.95 -52.83)"/></svg>